<?xml version="1.0" standalone="no"?>
<!DOCTYPE svg PUBLIC "-//W3C//DTD SVG 20010904//EN"
 "http://www.w3.org/TR/2001/REC-SVG-20010904/DTD/svg10.dtd">
<svg version="1.0" xmlns="http://www.w3.org/2000/svg"
 width="1522.000000pt" height="1522.000000pt" viewBox="0 0 1522.000000 1522.000000"
 preserveAspectRatio="xMidYMid meet">
<metadata>
Created by potrace 1.14, written by Peter Selinger 2001-2017
</metadata>
<g transform="translate(0.000000,1522.000000) scale(0.100000,-0.100000)"
fill="#000000" stroke="none">
<path d="M7737 15214 c-2 -2 -33 -6 -68 -9 -35 -3 -77 -8 -94 -12 -16 -3 -43
-7 -60 -9 -35 -3 -100 -13 -131 -19 -12 -3 -39 -7 -60 -10 -44 -7 -68 -12
-104 -20 -14 -3 -41 -8 -60 -10 -19 -3 -83 -14 -141 -25 -59 -11 -117 -22
-130 -24 -13 -3 -26 -5 -29 -6 -6 -3 -10 -3 -80 -14 -30 -5 -64 -10 -75 -12
-58 -12 -119 -22 -180 -30 -27 -3 -57 -7 -65 -9 -15 -3 -131 -16 -180 -20 -21
-2 -105 -16 -120 -20 -3 -1 -18 -5 -35 -9 -112 -29 -231 -77 -281 -115 -12 -9
-32 -23 -44 -31 -45 -29 -127 -125 -190 -220 -50 -75 -109 -152 -132 -170 -15
-11 -58 -34 -96 -49 -173 -71 -338 -213 -552 -471 -8 -10 -24 -31 -35 -46 -11
-15 -34 -46 -50 -68 -47 -63 -175 -265 -175 -275 0 -5 -6 -16 -13 -23 -7 -7
-30 -47 -51 -88 -20 -41 -41 -82 -46 -90 -33 -53 -169 -378 -185 -440 -2 -8
-17 -54 -34 -102 -16 -49 -27 -88 -24 -88 3 0 0 -7 -7 -15 -7 -8 -10 -15 -6
-15 3 0 1 -12 -5 -27 -6 -16 -12 -35 -14 -43 -2 -8 -11 -46 -20 -85 -26 -107
-58 -282 -71 -380 -3 -27 -8 -61 -10 -75 -27 -205 -26 -713 2 -905 8 -61 26
-214 27 -232 0 -7 4 -13 9 -13 5 0 7 -4 4 -9 -4 -5 0 -38 8 -73 8 -34 17 -74
20 -88 9 -50 104 -391 139 -505 40 -128 96 -296 117 -350 11 -27 42 -111 70
-185 54 -143 86 -223 165 -410 49 -116 96 -222 180 -405 97 -212 134 -288 281
-580 220 -437 255 -504 265 -511 5 -3 9 -14 9 -25 0 -10 4 -19 9 -19 5 0 14
-12 20 -27 5 -16 27 -57 47 -93 20 -36 54 -99 76 -140 23 -41 60 -109 83 -150
57 -101 99 -178 121 -220 11 -19 21 -37 24 -40 3 -3 15 -23 27 -45 31 -59 57
-104 92 -163 17 -29 31 -57 31 -62 0 -6 5 -10 10 -10 6 0 10 -4 10 -9 0 -6 64
-119 141 -253 78 -134 153 -263 167 -288 14 -25 36 -62 49 -82 12 -21 23 -39
23 -42 0 -2 17 -33 38 -67 68 -112 102 -180 102 -201 0 -11 -7 -32 -15 -46 -8
-15 -23 -47 -33 -72 -11 -25 -54 -126 -96 -225 -42 -99 -81 -188 -86 -197 -6
-10 -10 -25 -10 -33 0 -8 -5 -15 -12 -15 -6 0 -9 -3 -5 -6 3 -4 -3 -24 -13
-44 -11 -21 -26 -55 -33 -77 -17 -45 -114 -289 -127 -318 -37 -80 -263 -719
-275 -777 -2 -9 -9 -27 -16 -40 -7 -13 -12 -25 -11 -28 1 -3 -3 -23 -9 -45 -6
-22 -11 -41 -10 -43 1 -1 -6 -16 -14 -32 -9 -17 -13 -30 -10 -30 3 0 -1 -16
-9 -35 -8 -19 -13 -35 -11 -35 3 0 0 -12 -5 -26 -9 -23 -78 -279 -85 -314 -2
-8 -8 -35 -15 -60 -7 -25 -14 -56 -16 -70 -3 -14 -7 -33 -10 -42 -3 -10 -7
-30 -10 -45 -2 -16 -7 -41 -11 -58 -4 -16 -8 -34 -9 -40 -8 -37 -35 -186 -38
-210 -3 -17 -7 -45 -10 -62 -10 -57 -15 -86 -22 -138 -3 -27 -9 -70 -13 -95
-4 -25 -6 -60 -6 -77 0 -18 -2 -33 -5 -33 -14 0 -18 -486 -5 -615 4 -44 9 -93
10 -110 1 -16 5 -50 10 -74 4 -24 9 -60 10 -80 2 -20 4 -36 5 -36 1 0 3 -9 4
-20 7 -47 39 -167 67 -250 100 -297 301 -593 510 -751 100 -76 249 -168 289
-179 3 -1 23 -10 45 -20 45 -20 90 -37 90 -35 0 2 72 -24 110 -40 51 -21 97
-33 175 -47 73 -12 303 -5 351 11 8 3 30 7 49 10 55 9 94 16 107 21 6 2 60
-20 120 -49 99 -49 228 -100 263 -104 3 0 19 -6 35 -12 17 -7 39 -14 50 -16
11 -2 40 -8 65 -14 25 -5 61 -12 80 -14 19 -3 46 -8 60 -11 39 -9 165 -17 285
-18 95 -1 151 2 310 18 38 4 91 13 185 32 47 9 50 10 53 13 1 1 16 4 32 6 17
3 36 7 43 9 7 2 13 4 15 4 1 -1 20 6 42 15 22 10 40 16 40 15 0 -7 147 49 245
93 36 17 97 43 135 58 76 30 204 90 220 102 6 5 35 25 65 45 77 51 189 165
245 248 93 140 183 362 245 605 35 137 65 303 76 420 3 41 8 89 10 105 5 45 5
310 -1 390 -6 100 -14 185 -20 225 -3 19 -7 51 -10 70 -2 19 -11 68 -19 108
-7 39 -11 72 -9 72 3 0 0 6 -6 13 -6 8 -9 16 -6 18 2 3 -9 56 -26 119 -16 63
-31 122 -33 131 -3 9 -14 49 -27 90 -12 41 -24 79 -25 84 -3 15 -63 183 -90
250 -38 99 -106 252 -204 461 -93 198 -433 868 -452 891 -6 7 -7 13 -3 13 5 0
1 8 -7 18 -9 9 -23 33 -32 52 -23 52 -90 176 -105 194 -8 9 -10 16 -6 16 4 0
3 6 -3 12 -5 7 -29 49 -52 93 -91 170 -102 190 -112 203 -6 6 -7 12 -3 12 5 0
2 8 -6 18 -8 9 -28 42 -44 72 -47 90 -50 95 -60 102 -5 4 -7 8 -2 8 4 0 -3 17
-16 38 -13 20 -36 62 -52 92 -15 30 -34 66 -41 79 -7 14 -9 30 -5 35 5 6 27
47 51 91 24 44 56 104 72 133 16 29 42 77 57 107 16 31 34 61 39 68 6 6 10 14
9 17 0 3 6 16 15 30 13 21 123 222 238 435 18 33 41 74 50 90 10 17 31 55 47
85 55 101 96 175 134 243 22 38 39 70 39 72 0 2 15 30 34 62 37 65 124 226
140 260 6 13 14 23 19 23 4 0 7 6 7 14 0 14 37 84 50 96 3 3 16 28 30 55 44
85 105 200 110 205 3 3 19 32 36 65 68 131 89 170 96 175 3 3 10 18 13 33 4
15 11 27 15 27 5 0 11 8 14 18 3 10 44 89 91 177 47 87 85 164 85 171 0 7 4
14 9 16 4 2 53 91 107 198 54 107 102 198 107 201 5 3 8 9 7 13 0 3 24 57 55
119 30 62 55 117 55 121 0 5 6 17 13 25 12 14 126 266 156 344 6 15 16 39 23
55 6 15 12 29 13 32 1 3 4 12 7 20 3 8 20 58 38 110 18 52 39 109 46 125 29
66 151 447 180 565 2 8 17 69 33 135 17 66 32 134 35 150 3 17 8 44 11 60 3
17 8 37 10 45 2 8 7 38 11 65 3 28 8 54 11 59 3 4 7 27 9 50 2 24 5 56 8 72
44 262 53 732 21 1019 -9 83 -29 219 -40 275 -21 106 -39 184 -51 226 -8 28
-16 61 -19 73 -2 11 -6 25 -9 29 -3 5 -7 19 -10 33 -6 33 -84 252 -113 319
-56 128 -70 159 -109 235 -22 44 -67 130 -101 190 -33 61 -84 155 -113 210
-29 55 -58 109 -65 120 -7 11 -28 49 -47 85 -66 123 -73 135 -79 140 -4 3 -16
23 -28 45 -53 99 -141 243 -157 256 -8 6 -14 17 -14 24 0 8 -4 15 -8 17 -5 2
-23 25 -42 52 -73 107 -193 206 -266 220 -21 4 -147 17 -209 21 -22 2 -61 8
-85 15 -25 7 -52 14 -60 16 -8 2 -40 10 -70 17 -113 29 -561 173 -685 220 -22
9 -130 48 -240 87 -110 39 -209 75 -220 81 -12 6 -27 11 -35 13 -8 2 -28 9
-45 16 -85 36 -167 48 -315 48 -82 0 -151 -2 -153 -4z m-492 -2048 c28 -4 66
-10 85 -13 19 -3 44 -6 55 -8 11 -2 44 -8 73 -15 30 -7 61 -13 70 -15 9 -2 18
-4 20 -5 1 -2 5 -3 10 -4 25 -6 129 -40 137 -46 6 -4 27 -13 47 -19 110 -36
315 -164 420 -262 21 -20 38 -35 38 -32 0 14 142 -158 194 -237 76 -113 171
-298 181 -351 2 -10 9 -27 15 -38 6 -12 8 -21 4 -21 -3 0 -2 -6 3 -12 13 -17
42 -137 58 -243 24 -159 24 -516 0 -685 -6 -46 -15 -116 -20 -163 -2 -21 -7
-46 -10 -56 -5 -18 -17 -98 -18 -133 -1 -10 -4 -18 -8 -18 -3 0 -6 -14 -7 -30
0 -17 -3 -39 -7 -49 -6 -21 -13 -50 -20 -96 -3 -16 -24 -100 -46 -185 -22 -85
-42 -168 -45 -185 -3 -16 -10 -38 -15 -47 -5 -10 -8 -18 -5 -18 3 0 -2 -16
-10 -35 -8 -19 -14 -38 -15 -42 0 -5 -7 -33 -16 -63 -9 -30 -18 -60 -19 -67
-5 -29 -165 -505 -184 -548 -5 -11 -18 -47 -30 -80 -11 -33 -24 -67 -27 -75
-3 -8 -7 -17 -8 -20 -2 -7 -12 -31 -46 -120 -41 -109 -51 -135 -49 -138 1 -2
-5 -13 -12 -25 -8 -12 -25 -51 -38 -87 -13 -36 -26 -69 -30 -75 -4 -5 -11 -21
-15 -35 -4 -14 -18 -47 -30 -75 -13 -27 -35 -79 -50 -115 -15 -36 -32 -76 -38
-90 -6 -14 -11 -27 -12 -30 -3 -10 -47 -105 -81 -177 -19 -39 -34 -75 -34 -78
0 -7 -19 -49 -121 -261 -27 -56 -49 -104 -49 -107 0 -3 -11 -24 -23 -46 l-24
-42 -89 152 c-49 84 -98 167 -109 185 -33 54 -182 309 -283 484 -52 91 -108
188 -124 215 -16 28 -32 58 -35 68 -3 9 -9 17 -14 17 -5 0 -9 6 -9 14 0 8 -18
44 -40 80 -22 36 -40 70 -40 74 0 5 -11 26 -25 46 -13 20 -22 36 -20 36 2 0
-9 23 -25 50 -37 63 -236 462 -274 550 -15 36 -39 86 -52 112 -13 27 -25 51
-26 55 -1 10 -25 66 -49 119 -15 34 -97 277 -104 309 -4 15 -5 22 -16 57 -6
18 -12 40 -14 48 -2 8 -12 42 -21 75 -9 33 -17 67 -19 75 -2 8 -9 38 -15 65
-6 28 -14 61 -16 75 -3 14 -7 33 -10 42 -3 10 -7 30 -10 45 -3 16 -7 35 -9 43
-3 8 -7 33 -11 55 -3 22 -12 72 -20 110 -9 39 -17 86 -20 105 -2 19 -6 42 -9
50 -2 8 -7 33 -10 55 -3 23 -7 51 -10 64 -6 33 -18 130 -19 166 -1 17 -4 35
-8 40 -7 12 -2 487 5 535 3 19 8 51 11 70 2 20 7 47 10 60 3 14 8 36 10 50 37
223 241 769 295 787 9 4 23 11 31 18 8 6 44 24 80 39 36 15 74 32 85 37 11 5
30 11 41 13 12 3 43 12 70 21 43 14 233 50 309 57 55 6 310 1 360 -6z"/>
</g>
</svg>
