<svg clip-rule="evenodd" fill-rule="evenodd" stroke-linejoin="round" stroke-miterlimit="2" viewBox="0 0 355 761" xmlns="http://www.w3.org/2000/svg" xmlns:xlink="http://www.w3.org/1999/xlink"><linearGradient id="a" gradientTransform="matrix(-22.2836 -91.524 91.524 -22.2836 517.389 553.063)" gradientUnits="userSpaceOnUse" x1="0" x2="1" y1="0" y2="0"><stop offset="0" stop-color="#faf6f2"/><stop offset=".51" stop-color="#fffbf7"/><stop offset=".68" stop-color="#fffbf7"/><stop offset=".9" stop-color="#ebe7e3"/><stop offset="1" stop-color="#ccc9c6"/></linearGradient><linearGradient id="b"><stop offset="0" stop-color="#791426"/><stop offset=".53" stop-color="#af1c3b"/><stop offset="1" stop-color="#791426"/></linearGradient><linearGradient id="c" gradientTransform="matrix(-15.0336 25.9144 -25.9144 -15.0336 490.23 399.203)" gradientUnits="userSpaceOnUse" x1="0" x2="1" xlink:href="#b" y1="0" y2="0"/><linearGradient id="d" gradientTransform="matrix(-80.8102 46.4298 -46.4298 -80.8102 1997.61 1668.94)" gradientUnits="userSpaceOnUse" x1="0" x2="1" xlink:href="#b" y1="0" y2="0"/><linearGradient id="e" gradientTransform="matrix(-90.4786 22.2589 -22.2589 -90.4786 2053.36 1744.84)" gradientUnits="userSpaceOnUse" x1="0" x2="1" xlink:href="#b" y1="0" y2="0"/><linearGradient id="f" gradientTransform="matrix(1459.51 -3235.1 3235.1 1459.51 13140.9 15209.1)" gradientUnits="userSpaceOnUse" x1="0" x2="1" xlink:href="#b" y1="0" y2="0"/><linearGradient id="g" gradientTransform="matrix(2035.53 6399.58 -6399.58 2035.53 15569.6 20025.3)" gradientUnits="userSpaceOnUse" x1="0" x2="1" xlink:href="#b" y1="0" y2="0"/><g fill-rule="nonzero"><path d="m547.13 404c-.41-.79-1.93-3.63-2.45-4.6l-.18-.32c-6.62-12.14-6.84-9.84-11-10.57l-.47-.11c-4.71-1.08-12.8-4.14-16.75-5.6s-14.83 1.72-21.77 2.4c-1.442.112-2.862.422-4.22.92-3.19 1.24-4 3.34-5.3 5.06-.447.736-1.166 1.268-2 1.48-5.4 1.93-18.15 17.65-15.39 39.33.215 2.11.623 4.195 1.22 6.23 5.18 20.85 22.87 48.78 27.18 56.68-3.19 7.34-10 22.41-12.18 36.6-.366 2.142-.583 4.308-.65 6.48-.29 7.21 1.07 13.82 5.25 18.56l.86.92c2.032 1.968 4.504 3.425 7.21 4.25 3.6 1.55 6.33.68 9 .23 1.159.697 2.389 1.267 3.67 1.7 7.57 2.61 16 .52 20-1.7 5.32-1.73 7.75-4.85 9.27-9.68 1.53-4.56 3.88-13.85-1.43-27.61-2.38-5.94-7.18-15.24-14.56-28.76v-.08c5.92-11.19 21.78-38.89 24.6-47 .15-.43.29-.84.42-1.25 4.79-12.25 7.92-28.46-.28-43.55m-38.71 68.13c-6-10.05-11.53-19.36-15.09-28.29-1.153-3.466-2.049-7.012-2.68-10.61-2-9.79-1.17-15.54 2.57-23.46l.25-.51c2.154-1.22 4.538-1.983 7-2.24 6.27-.62 16.91 1 21 12.41 4.29 12.08-4.87 35.64-13.09 52.71" fill="#fff" transform="matrix(4.16667 0 0 4.16667 -1946.727 -1593.420289)"/><path d="m503.92 509.69c-1.71-3.29-5.45-10.47-6.25-12.17-8.69 16.92-10.84 35.71-11 41.17.09 4.2 0 10.56 5.94 13.28 7.89-10.73-5.94-26.76 11.28-42.28" fill="#aca9a6" transform="matrix(4.16667 0 0 4.16667 -1946.727 -1593.420289)"/><path d="m523.87 453.26c2-10.09 7.1-18.69.67-32.71-5.3-11.54-14.43-15.67-24-13.5 6.27-.62 16.92 1 21 12.41 4.29 12.08-4.87 35.64-13.09 52.71-.19.4-.39.8-.58 1.2 4 6.92 7.26 12.88 11.16 19.92 0 0 5.26-8.47 7.44-12.31-4.48-10.36-3.83-21.42-2.56-27.71" fill="#aca9a6" transform="matrix(4.16667 0 0 4.16667 -1946.727 -1593.420289)"/><path d="m548.78 420.36v-1.49c-.06-1.51-.16-2.82-.31-3.9-.111-.818-.281-1.627-.51-2.42-1.138-2.771-2.714-5.341-4.67-7.61-2.888-3.537-6.008-6.878-9.34-10-.342.152-.676.322-1 .51-4.35 2.6-4.25 6.14-19.37-1.1-2.28-1.09-5.85-.4-7.85-.27 15.29 11.34 32.07 10.86 43.06 26.28" fill="#bcbab7" transform="matrix(4.16667 0 0 4.16667 -1946.727 -1593.420289)"/><path d="m537.05 463.05c.58-.88 1.11-1.7 1.59-2.44.57-.92 1.1-1.87 1.61-2.83.233-.433.457-.873.67-1.32 6.21-12.48 7.95-27 7.86-36.1-7.78-22.58-30.46-12.51-37.73-26.59l-5.68.34c.36.45.72.9 1.11 1.35 2.88 3.29 9.63 10 16.88 11.65s13.35 2.76 19.47 11.87-.39 22-6.13 34.59c-2.29 5-2.52 10.09-2.85 15.08.93-1.29 1.13-2.79 2.24-4.27.32-.44.64-.88.95-1.34" fill="#ccc9c6" transform="matrix(4.16667 0 0 4.16667 -1946.727 -1593.420289)"/><path d="m542.84 419c-6.13-9.12-12.21-10.18-19.47-11.88s-14-8.37-16.88-11.65c-.39-.44-.75-.89-1.11-1.34-5 .49-9 4.49-11.73 10.23-.965 2.076-1.741 4.235-2.32 6.45 2.632-2.121 5.833-3.419 9.2-3.73 9.58-2.18 18.72 2 24 13.5 6.44 14 1.37 22.62-.67 32.71-1.27 6.28-1.92 17.35 2.56 27.71 2.172-4.282 4.658-8.397 7.44-12.31.33-5 .56-10.06 2.85-15.08 5.75-12.61 12.29-25.51 6.13-34.61" fill="#bbb8b5" transform="matrix(4.16667 0 0 4.16667 -1946.727 -1593.420289)"/><path d="m499.4 495.76c-6.77 9.43-17.16 59.82-2.05 58.05 23.71-3.32 5.2-51.63 2.05-58.05" fill="#9a9794" transform="matrix(4.16667 0 0 4.16667 -1946.7250098 -1593.4215638)"/><path d="m501.24 403.22c1.704-.515 3.457-.85 5.23-1 1.777-.187 3.567-.22 5.35-.1 3.614.193 7.144 1.161 10.35 2.84 3.217 1.755 5.931 4.306 7.88 7.41.959 1.557 1.769 3.201 2.42 4.91.619 1.71 1.117 3.461 1.49 5.24 1.47 7.17.8 14.59-.69 21.65-1.571 7.049-3.77 13.943-6.57 20.6-2.7 6.65-5.85 13.08-9.05 19.43l-4.87 9.46-4.78 9.42c-3.18 6.223-5.885 12.678-8.09 19.31-.516 1.643-.943 3.312-1.28 5-.37 1.679-.608 3.384-.71 5.1-.277 3.464.254 6.946 1.55 10.17l-.41.22c-1.952-3.123-3.058-6.7-3.21-10.38-.182-3.666.134-7.339.94-10.92.758-3.551 1.761-7.046 3-10.46 1.18-3.41 2.57-6.74 4-10 5.77-13.13 12.56-25.59 18.58-38.29 1.49-3.18 3-6.37 4.27-9.61 1.346-3.224 2.524-6.515 3.53-9.86 2-6.66 3.1-13.67 2.09-20.55-.258-1.713-.656-3.402-1.19-5.05-.549-1.638-1.249-3.221-2.09-4.73-1.734-3.016-4.213-5.537-7.2-7.32-3.049-1.751-6.439-2.825-9.94-3.15-1.757-.185-3.527-.222-5.29-.11-1.771.095-3.527.373-5.24.83z" fill="#797775" opacity=".33" transform="matrix(4.16667 0 0 4.16667 -1946.7250098 -1593.4215638)"/><path d="m547.13 404c-.41-.78-1.92-3.62-2.45-4.6l-.18-.33c-6.62-12.14-6.84-9.84-11-10.57l-.46-.11c-4.71-1.08-12.8-4.15-16.75-5.59s-14.83 1.71-21.77 2.39c-1.442.115-2.861.424-4.22.92-3.19 1.24-4 3.34-5.3 5.06-.446.737-1.165 1.269-2 1.48-5.4 1.93-18.15 17.65-15.39 39.32.214 2.11.622 4.195 1.22 6.23 5.17 20.87 22.86 48.8 27.17 56.7-3.19 7.34-10 22.41-12.18 36.6-.365 2.143-.582 4.308-.65 6.48-.29 7.21 1.06 13.82 5.25 18.56l.86.92c2.032 1.971 4.503 3.431 7.21 4.26 3.59 1.54 6.33.68 9 .23 1.162.698 2.396 1.268 3.68 1.7 7.57 2.62 16 .51 20-1.7 5.32-1.72 7.74-4.84 9.27-9.68 1.53-4.55 3.88-13.85-1.43-27.61-2.39-5.94-7.18-15.24-14.56-28.76v-.08c5.92-11.19 21.77-38.89 24.6-47 .15-.43.28-.84.42-1.25 4.79-12.25 7.92-28.47-.28-43.55m-48.82 148.77c-.86.139-1.734.166-2.6.08-1.463-.214-2.855-.773-4.06-1.63-1.838-1.283-3.211-3.13-3.91-5.26-2.14-6.4-1.69-19.12 9.74-47.93 1.19 2.59 2.31 5 2.8 6 5.175 10.245 7.981 21.524 8.21 33-.71 9.22-5.16 14.81-10.18 15.75m21-61.94c-.66-1.1-1.05-1.71-1.05-1.71l-.72-1.22c-9.12-16.37-18.93-30.63-24.27-44.05-1.15-3.467-2.046-7.013-2.68-10.61-2-9.79-1.17-15.54 2.57-23.46 3.6-7.62 14.48-17.13 20.57-14.22 13.13 6.28 14.88 3.25 18 .67.1-.07.35-.26.45-.35l.54-.36c34.43 26.43-2.48 77.52-13.46 95.31" fill="#efece8" transform="matrix(4.16667 0 0 4.16667 -1946.7250098 -1593.4215638)"/><path d="m532.86 469.52c-.5.8-1.77 2.7-3.35 5-3.94 6.65-7.68 12.3-10.14 16.28.8 1.29 2.58 4.19 3.35 5.58l-.28-.52-.05-.08 1.26-2.35c0-4.5 7.68-20.45 9.22-23.95" fill="#dad7d3" transform="matrix(4.16667 0 0 4.16667 -1946.7250098 -1593.4215638)"/><path d="m516.25 385.81c-2.91-1.56-6.62-1.43-10.15-.81-1.08.19-3.66.68-3.66.68s5.21 1.28 9.38 2.75c2.68 1 7.18 2.76 12.61-.1l.1-.23c-2.881-.225-5.693-1.002-8.28-2.29" fill="#bbb8b5" transform="matrix(4.16667 0 0 4.16667 -1946.7250098 -1593.4215638)"/><path d="m484.81 393.1c-.455 1.118-.79 2.281-1 3.47-.17.92-.33 1.92-.49 3 6.17-7.65 12.39-10.92 13-11.22s2.7-1.71 3.58-2c-6.69 1.81-10.43 4.54-14.43 5.75-.262.301-.481.638-.65 1" fill="#f6f2ee" transform="matrix(4.16667 0 0 4.16667 -1946.7250098 -1593.4215638)"/><path d="m517.59 395.75c-10.23-5.73-15.5 1.56-15.5 1.56s-.06.11-.09.12c-3.64 3.25-7.27 7.77-8.78 12.37 3.6-7.62 14.49-17.14 20.58-14.22 14.4 6.89 15.12 2.59 19 0-2.85 1.72-5.21 5.82-15.24.21" fill="#ebe7e3" transform="matrix(4.16667 0 0 4.16667 -1946.7250098 -1593.4215638)"/><path d="m531.82 396c-6.71 2.8-11.24-2.69-18-6.69-.29-.12-.57-.25-.87-.4-4.73-2.31-12.66 10.09-12.64 10.09 1.51-1.11 7.05-9 17.28-3.28 10 5.61 11.51 2.42 14.24.51l1-.72s-.87.4-1 .5" fill="#fffbf7" transform="matrix(4.16667 0 0 4.16667 -1946.7250098 -1593.4215638)"/><path d="m498.78 399.82c-5.84 4.44-14.61 6.29-16.42 5.37-.8 8.76-2.7 20.09-.76 32.9.85 5.59 2 11.54 2.93 17.43-2.39-18.81-2.9-41.39 14.26-55.69" fill="#efece8" transform="matrix(4.16667 0 0 4.16667 -1946.7250098 -1593.4215638)"/><path d="m490.31 386.15c-3.19 1.24-4 3.34-5.3 5.06-.447.736-1.166 1.268-2 1.48.49-.1 1.07-.24 1.72-.4 1.739-.481 3.432-1.113 5.06-1.89 1.62-.72 3.46-1.53 5.82-2.49 1.31-.53 4.08-1.54 5.54-1.93s5.32-1.05 5.53-1.1l2-.26c-.14 0-16.26.93-18.3 1.52" fill="#efece8" transform="matrix(4.16667 0 0 4.16667 -1946.7250098 -1593.4215638)"/><path d="m531.43 558c-.16.33-.28.62-.45.91-.533 1.043-1.141 2.046-1.82 3 5.35-1.74 7.75-4.8 9.27-9.68-5.67 5.95-7 5.74-7 5.74" fill="#d2cfcb" transform="matrix(4.16667 0 0 4.16667 -1946.7250098 -1593.4215638)"/><path d="m519 559.63c-4.26-1.87-7.69 1.79-9.83 4 7.57 2.61 16 .51 20-1.71.678-.955 1.286-1.957 1.82-3-2.24 3.72-7.87 2.52-12 .72" fill="#dedbd7" transform="matrix(4.16667 0 0 4.16667 -1946.7250098 -1593.4215638)"/><path d="m505.89 553.29c2.252-5.117 3.168-10.723 2.66-16.29-.72 9.19-5.17 14.81-10.18 15.75-.859.14-1.734.167-2.6.08-1.466-.21-2.861-.766-4.07-1.62-.22-.15-.43-.31-.63-.48-3.892-1.189-6.869-4.368-7.8-8.33s0-.07 0-.11c0 .64.1 1.28.18 1.92v.14c.217 1.861.626 3.694 1.22 5.47 4.21 7.62 16.32 13.12 21.25 3.44" fill="#ebe7e3" transform="matrix(4.16667 0 0 4.16667 -1946.7250098 -1593.4215638)"/><path d="m498.37 552.79c-.859.14-1.734.167-2.6.08-1.462-.211-2.854-.766-4.06-1.62-1.004-.696-1.874-1.566-2.57-2.57-3.45-3.57-5.36-9.95-5.66-14.27v-.16c-.13 1.15-.25 2.5-.26 3.73-.121 2.527.01 5.059.39 7.56.004.047.004.093 0 .14 3.83 7.26 14.44 14.51 21.51 2.27-1.51 2.449-3.944 4.191-6.75 4.83" fill="#f2efea" transform="matrix(4.16667 0 0 4.16667 -1946.7250098 -1593.4215638)"/><path d="m544.5 399.11c-6.62-12.14-6.84-9.84-11-10.57-5.6.3-11.86 4.2-19.72.81 11.06 6.61 20.38-7.65 30.86 10l.14.26-.12-.21-.17-.33" fill="#e7e4e0" transform="matrix(4.16667 0 0 4.16667 -1946.7250098 -1593.4215638)"/><path d="m496.51 561.71c2.8-1.815 5.185-4.2 7-7-5.26 4.83-16.64 3.26-20-9.28.527 4.085 2.222 7.933 4.88 11.08l.86.92c2.031 1.972 4.503 3.433 7.21 4.26" fill="#ccc9c6" transform="matrix(4.16667 0 0 4.16667 -1946.7250098 -1593.4215638)"/><path d="m516.3 382.83c-4.08-1.5-14.83 1.72-21.77 2.4-1.442.115-2.861.424-4.22.92 4.1-.89 4.39 0 16.41-1.35.06 0 1.58-.16 2-.18 2.58-.313 5.198.096 7.56 1.18 2.442 1.301 5.116 2.106 7.87 2.37 3.11.33 6.07.11 8.93.25-4.7-1.08-12.8-4.15-16.75-5.6" fill="#f2efea" transform="matrix(4.16667 0 0 4.16667 -1946.7250098 -1593.4215638)"/><path d="m524.12 388.18-.33.17c-4.48 2.42-8.62 1.29-11.3.27.44.24.88.48 1.31.74 7.86 3.39 14.12-.52 19.72-.82l-.46-.11c-2.87-.14-5.82.08-8.94-.25" fill="#ebe7e3" transform="matrix(4.16667 0 0 4.16667 -1946.7250098 -1593.4215638)"/><path d="m532.86 525.22c-5.09-22.43-16.16-37-25.92-49-7.368-8.991-12.465-19.625-14.86-31 .2 2.27.39 4.65.55 7.08 1.89 13.76 7 30.1 22.13 48.59 13.73 16.8 16.63 19.09 18.1 24.33" fill="#fffbf7" transform="matrix(4.16667 0 0 4.16667 -1946.7250098 -1593.4215638)"/><path d="m544.93 399.91.16.37 1 2.32c1.639 3.793 1.421 8.141-.59 11.75 3.68 13-.18 27.89-6.15 41.42-2.6 5.93-2.51 11.24-3.26 15v-.05c5-9.17 9.5-17.89 10.9-21.88.15-.43.28-.84.42-1.25 4.79-12.25 7.92-28.46-.28-43.55z" fill="#ebe7e3" transform="matrix(4.16667 0 0 4.16667 -1946.7250098 -1593.4215638)"/><path d="m532.83 395.54c3.275 2.617 6.082 5.772 8.3 9.33-.73-5.18-2-10.31-6.38-9.87-.539.046-1.068.171-1.57.37s-.06-.06-.35.16" fill="#dedbd7" transform="matrix(4.16667 0 0 4.16667 -1946.7250098 -1593.4215638)"/><path d="m546.19 402.49c-1.217-1.832-2.553-3.583-4-5.24-1.517-1.674-3.661-2.649-5.92-2.69-1.112-.017-2.209.27-3.17.83-.088.046-.172.099-.25.16 6.2-1.78 7.39 4.21 8.3 9.33 1.935 2.921 3.403 6.126 4.35 9.5 1.854-3.694 2.107-7.994.7-11.88" fill="#ccc9c6" transform="matrix(4.16667 0 0 4.16667 -1946.7250098 -1593.4215638)"/><path d="m509.16 563.64c2.7-2.2 4.91-4.6 7.75-4.51-2-.09-9.67 1.55-11.43 2.81 1.163.695 2.397 1.265 3.68 1.7" fill="#d2cfcb" transform="matrix(4.16667 0 0 4.16667 -1946.7250098 -1593.4215638)"/><path d="m535.22 540.44c-.076-2.071-.31-4.134-.7-6.17-.666-3.849-2.142-7.514-4.33-10.75-8-11.2-27-31.85-31.95-47.94 1.44 10.08-1 22.21 3 28.16 1.373 1.767 2.707 3.51 4 5.23 9.7 11.56 21 18.27 20.63 34.67-.19 8.69-3.12 11.79-7.39 15.79l.51.2c4.13 1.8 9.75 3 12-.72 3.116-5.641 4.586-12.045 4.24-18.48" fill="#efece8" transform="matrix(4.16667 0 0 4.16667 -1946.7250098 -1593.4215638)"/><path d="m526.62 545c2.57-21.09-9.63-32.39-21.24-45.69-1.34-1.49-5.22-3.19-3.7.31 6.56 10.3 10.93 20.28 12 24.44 6.12 24.52-.6 32.28-8.16 37.85 1.76-1.26 9.39-2.89 11.43-2.8.536.019 1.065.121 1.57.3 3.48-3.26 5.9-5 7.28-10.17.19-.72.37-1.52.54-2.41.11-.57.24-1.18.32-1.83" fill="#e7e4e0" transform="matrix(4.16667 0 0 4.16667 -1946.7250098 -1593.4215638)"/><path d="m517.66 529.61c-4.171-16.099-11.47-31.22-21.48-44.5-.18.55-1.24 3.89-2.11 6.37.79 1.37 1.46 2.52 1.94 3.41.61 1.19 1 2 1.51 3.16 1.19 2.59 2.31 5 2.8 6 5.176 10.245 7.982 21.524 8.21 33 .49 9.18-4.11 19.72-12 24.67 3.6 1.55 6.33.68 9 .23 6.45-2.35 18.3-7.8 12.17-32.33" fill="#f2efea" transform="matrix(4.16667 0 0 4.16667 -1946.7250098 -1593.4215638)"/><path d="m502.63 394.11c-3.619 1.811-6.85 4.311-9.51 7.36-2.653 2.981-4.753 6.411-6.2 10.13-2.89 7.42-3.12 15.63-1.85 23.49s4.05 15.57 5.68 23.63c.866 4.034 1.256 8.155 1.16 12.28-.147 4.08-.864 8.119-2.13 12 .807-3.967 1.143-8.015 1-12.06-.167-4.017-.754-8.005-1.75-11.9-1-3.9-2.16-7.77-3.33-11.68-1.198-3.936-2.147-7.944-2.84-12-.654-4.099-.832-8.26-.53-12.4.178-2.076.512-4.135 1-6.16.48-2.032 1.149-4.014 2-5.92 1.658-3.823 4.035-7.292 7-10.22 2.905-2.927 6.413-5.186 10.28-6.62" fill="#ccc9c6" transform="matrix(4.16667 0 0 4.16667 -1946.7250098 -1593.4215638)"/><path d="m494.31 491.16c.807-2.161 1.337-4.416 1.58-6.71.212-2.291.239-4.595.08-6.89-.24-4.6-.95-9.17-1.64-13.74s-1.44-9.14-2.05-13.73-.87-9.19-1.31-13.8l4.19 27.41c.764 4.581 1.262 9.202 1.49 13.84.08 2.338-.027 4.679-.32 7-.358 2.298-1.031 4.536-2 6.65" fill="#ccc9c6" transform="matrix(4.16667 0 0 4.16667 -1946.7250098 -1593.4215638)"/><path d="m482.79 397.43c-.912 2.903-1.677 5.85-2.29 8.83-.633 2.971-1.097 5.976-1.39 9-.618 6.031-.618 12.109 0 18.14.711 6.027 1.881 11.991 3.5 17.84.74 3 1.55 5.89 2.22 8.88.74 2.97 1.123 6.019 1.14 9.08-.211-3.051-.757-6.069-1.63-9-.79-2.94-1.67-5.85-2.51-8.78-1.768-5.862-3.033-11.863-3.78-17.94-.313-3.05-.45-6.115-.41-9.18.02-3.062.22-6.121.6-9.16.401-3.03.972-6.034 1.71-9 .758-2.959 1.7-5.868 2.82-8.71" fill="#ccc9c6" transform="matrix(4.16667 0 0 4.16667 -1946.7250098 -1593.4215638)"/><path d="m477.07 399.94c-1.296 2.546-2.302 5.23-3 8-.713 2.762-1.264 5.564-1.65 8.39-.76 5.636-.848 11.343-.26 17 .551 5.656 1.967 11.194 4.2 16.42 1.16 2.57 2.46 5.14 3.75 7.68s2.72 5 4.08 7.55c-.91-1.11-1.78-2.26-2.62-3.43s-1.57-2.35-2.33-3.55-1.42-2.51-2.07-3.79-1.28-2.58-1.86-3.91c-2.238-5.344-3.641-11-4.16-16.77-.522-5.75-.314-11.543.62-17.24.451-2.842 1.099-5.648 1.94-8.4.794-2.763 1.922-5.42 3.36-7.91" fill="#dedbd7" transform="matrix(4.16667 0 0 4.16667 -1946.7250098 -1593.4215638)"/><path d="m483.28 399.56c2.725-3.941 6.185-7.32 10.19-9.95 1.991-1.37 4.153-2.472 6.43-3.28.83-.29 1.683-.51 2.55-.66.34-.06.7-.09 1.05-.11 1.258-.097 2.522.088 3.7.54 4.58 1.63 8.56 4.37 12.57 6.84 1.964 1.289 4.076 2.337 6.29 3.12 1.102.378 2.266.545 3.43.49 1.176-.066 2.321-.409 3.34-1-.977.704-2.115 1.152-3.31 1.3-1.208.131-2.429.033-3.6-.29-2.298-.7-4.502-1.681-6.56-2.92-4.14-2.33-8.08-5.06-12.51-6.54-.531-.187-1.076-.331-1.63-.43-.552-.084-1.112-.11-1.67-.08-1.14.081-2.266.307-3.35.67-2.208.769-4.319 1.793-6.29 3.05-2.003 1.241-3.903 2.642-5.68 4.19-1.832 1.515-3.507 3.21-5 5.06" fill="#ccc9c6" transform="matrix(4.16667 0 0 4.16667 -1946.7250098 -1593.4215638)"/><path d="m532.83 395.54c.977-.803 2.179-1.285 3.44-1.38 1.285-.076 2.567.197 3.71.79 1.98.993 3.618 2.557 4.7 4.49l.27.49.18.34c1.272 2.167 2.019 4.602 2.18 7.11.172 2.467-.463 4.925-1.81 7 1.076-2.166 1.513-4.595 1.26-7-.248-2.389-1.013-4.696-2.24-6.76-1.165-2.065-2.851-3.789-4.89-5-1.014-.594-2.156-.937-3.33-1-1.204-.024-2.394.27-3.45.85" fill="#bbb8b5" transform="matrix(4.16667 0 0 4.16667 -1946.7250098 -1593.4215638)"/><path d="m497 484.63c1.102 5.256 2.901 10.341 5.35 15.12 1.208 2.387 2.571 4.692 4.08 6.9l2.3 3.31 1.15 1.67c.38.56.72 1.15 1.08 1.71 1.433 2.296 2.732 4.674 3.89 7.12 1.129 2.464 2.075 5.007 2.83 7.61.732 2.617 1.228 5.294 1.48 8 .246 2.161.313 4.338.2 6.51-.031-2.164-.218-4.323-.56-6.46-.347-2.655-.912-5.277-1.69-7.84-.82-2.545-1.799-5.037-2.93-7.46-1.166-2.407-2.472-4.745-3.91-7-.36-.56-.71-1.14-1.08-1.69l-1.19-1.71c-.76-1.1-1.55-2.2-2.3-3.32-1.5-2.243-2.853-4.581-4.05-7-2.37-4.867-3.957-10.078-4.7-15.44" fill="#ccc9c6" transform="matrix(4.16667 0 0 4.16667 -1946.7250098 -1593.4215638)"/><path d="m495.5 470.13c.474 3.624 1.294 7.193 2.45 10.66 1.087 3.486 2.403 6.897 3.94 10.21 2.99 6.641 7.085 12.728 12.11 18 1.28 1.27 2.62 2.58 3.82 4 1.201 1.406 2.303 2.893 3.3 4.45 2.002 3.108 3.526 6.499 4.52 10.06 1.628 5.97 1.918 12.225.85 18.32-.2 1.16-.45 2.33-.75 3.47.733-3.578 1.049-7.229.94-10.88-.079-3.645-.644-7.264-1.68-10.76-1.034-3.476-2.559-6.786-4.53-9.83-.99-1.516-2.083-2.963-3.27-4.33-1.19-1.38-2.49-2.61-3.79-3.93-5.072-5.353-9.167-11.554-12.1-18.32-1.485-3.358-2.741-6.812-3.76-10.34-.5-1.767-.933-3.547-1.3-5.34-.391-1.788-.645-3.603-.76-5.43" fill="#d2cfcb" transform="matrix(4.16667 0 0 4.16667 -1946.7250098 -1593.4215638)"/><path d="m539.13 460.64c1.883-3.691 3.51-7.506 4.87-11.42 1.371-3.891 2.516-7.857 3.43-11.88.919-4.013 1.517-8.092 1.79-12.2.123-2.053.082-4.113-.12-6.16l-.16-1.54-.32-1.51-.15-.76c-.06-.25-.17-.49-.25-.73l-.5-1.48c1.95 3.71 2.42 8 2.41 12.2-.005 2.097-.145 4.191-.42 6.27-.253 2.073-.61 4.133-1.07 6.18-.887 4.094-2.111 8.108-3.66 12-1.526 3.873-3.482 7.563-5.83 11" fill="#fffbf7" transform="matrix(4.16667 0 0 4.16667 -1946.7250098 -1593.4215638)"/><path d="m511.87 539.69c.071-8.402-1.306-16.755-4.07-24.69-2.733-7.899-6.317-15.477-10.69-22.6-2.14-3.6-4.37-7.2-6.47-10.85s-4.15-7.33-6.1-11.07c-4.01-7.4-7.463-15.087-10.33-23 1.7 3.85 3.52 7.62 5.5 11.34s4 7.4 6 11.06c4.12 7.32 8.45 14.49 12.83 21.69 4.416 7.237 7.929 14.988 10.46 23.08 1.241 4.052 2.127 8.204 2.65 12.41.507 4.192.567 8.425.18 12.63" fill="#e1deda" transform="matrix(4.16667 0 0 4.16667 -1946.7250098 -1593.4215638)"/><path d="m479.72 458.82c1.94 3.72 4 7.41 6 11.06.847 1.507 1.703 3.01 2.57 4.51 2.49 4 5.27 8 8.32 12 14 18.14 22.79 36.62 16.45 54.45-1.15 3.25-.57 4.77.89 4.83h.19c4-.16 13.85-10.29 14-25.53v-.74c-.11-10.47-4.79-23.27-18.91-36.88-13.203-10.021-24.979-21.797-35-35 1.7 3.85 3.52 7.62 5.5 11.33" fill="url(#a)" opacity=".43" transform="matrix(4.16667 0 0 4.16667 -1946.7250098 -1593.4215638)"/><path d="m497.53 498.05c-.5-1.15-.9-2-1.51-3.16-3.19 7.34-10 22.41-12.18 36.6-.364 2.143-.581 4.308-.65 6.48.042.46.112.918.21 1.37 1.92 8.27 4.9 9.68 6.15 9.89-.78-.968-1.38-2.069-1.77-3.25-2.13-6.4-1.69-19.12 9.74-47.93" fill="#f2efea" transform="matrix(4.16667 0 0 4.16667 -1946.7250098 -1593.4215638)"/><path d="m537 524.65c-2.39-5.94-7.18-15.24-14.57-28.76v-.07l-4.79-7.9c-9.11-16.37-18.93-30.63-24.27-44.05-1.152-3.466-2.048-7.013-2.68-10.61.002-.02.002-.04 0-.06.52 3.32.38 6.77 1.46 12.06 2.4 11.374 7.496 22.006 14.86 31 9.76 12 20.83 26.57 25.92 49 1.004 5.043 1.673 10.148 2 15.28.494 6.032-.719 12.084-3.5 17.46.06.09 1.61 2.14 6.09-4.1.342-.528.646-1.079.91-1.65 1.53-4.55 3.88-13.85-1.43-27.61" fill="#fffbf7" transform="matrix(4.16667 0 0 4.16667 -1946.7250098 -1593.4215638)"/><path d="m480.1 420.83c.102-.861.841-1.518 1.708-1.518.563 0 1.091.276 1.412.738-.794.537-1.731.823-2.69.82-.143.008-.287.008-.43 0m-4.23-3.62c.15-.042.305-.063.46-.063.944 0 1.72.777 1.72 1.72v.013c-.009.363-.136.714-.36 1-.908-.664-1.552-1.628-1.82-2.72m7.91-.79c.004-.799.555-1.498 1.33-1.69.348 1.087.273 2.266-.21 3.3-.673-.253-1.12-.901-1.12-1.62m-4.29 1.36-.87-1.63c-.091-.185-.06-.408.08-.56l1.29-1.33c.143-.155.373-.196.56-.1l1.66.81c.188.09.294.295.26.5l-.26 1.83c-.027.206-.185.373-.39.41l-1.82.31h-.08c-.178.003-.345-.093-.43-.25m-3.44-3.43c.412-1.049 1.18-1.92 2.17-2.46.156.26.239.557.24.86v.01c0 .949-.781 1.73-1.73 1.73-.003 0-.007 0-.01 0-.233.004-.465-.04-.68-.13m5.38-1.45c-.66-.256-1.101-.892-1.11-1.6h.21c1.058-.003 2.086.35 2.92 1-.453.627-1.274.877-2 .61m-7.63 3.18v.01c0 3.692 3.038 6.73 6.73 6.73s6.73-3.038 6.73-6.73-3.038-6.73-6.73-6.73c-.003 0-.007 0-.01 0-3.686 0-6.72 3.034-6.72 6.72z" fill="url(#c)" transform="matrix(4.16667 0 0 4.16667 -1946.727 -1593.420289)"/></g><path d="m481.9 402.9h3.11v3.11h-3.11z" fill="url(#d)" transform="matrix(3.60844 -2.08333 2.08333 3.60844 -2519.477 -360.253289)"/><path d="m478.15 426.4h3.11v3.11h-3.11z" fill="url(#e)" transform="matrix(2.89075 -3.00078 3.00078 2.89075 -2618.887 391.912711)"/><path d="m522.08 563.32c-1.512.217-2.966.73-4.28 1.51 2.144-.1 4.27-.436 6.34-1-.472-.395-1.075-.598-1.69-.57h-.36m-8.2.06c-.392.406-.809.787-1.25 1.14.765.132 1.536.222 2.31.27.092-.04.179-.091.26-.15.414-.327.792-.695 1.13-1.1.26-.29.45-.61.7-.92s.49-.57.75-.87c-1.478-.057-2.907.544-3.9 1.64m-8.75-2.81c-.48 0-.93 0-1.39-.1.243.28.515.535.81.76l-.63.52c2.19-.09 3.82.93 5.46 1.94-.21-1.31-2.07-3.08-4.33-3.41l.09.28m4.4-.29c-.261.23-.411.561-.411.909 0 .309.119.606.331.831.15.19.32.36.44.5.46-.38.86-.77 1.31-1.12.851-.557 1.298-1.566 1.14-2.57 0-.23-.1-.44-.16-.73-.9.8-1.81 1.49-2.65 2.19m18.65-3.64-.17-.08c-.47-.27-2.25-.67-3.16.31-.63.69-1.38 2.44-.23 3.19.247.242.626.295.93.13.363-.209.643-.538.79-.93.028-.085.048-.172.06-.26-.054.035-.104.075-.15.12-.37.4-.59.51-.77.39-.244-.33-.29-.767-.12-1.14.55-1 1.57-1.31 2.08-1s.5.79.17 1.59c-.309.874-.948 1.592-1.78 2-.665.255-1.361.42-2.07.49-.439.022-.878-.029-1.3-.15-.573-.178-1.183-.206-1.77-.08-1.929.693-3.606 1.951-4.81 3.61h.68c.349-.411.741-.784 1.17-1.11 1.064-.925 2.421-1.445 3.83-1.47 1 .05 1.82.23 2.71.27.548.063 1.102.063 1.65 0 .981-.27 1.801-.947 2.25-1.86l-.64-.14c.978-.792 1.658-1.892 1.93-3.12-.39.27-.75.49-1.12.71.247-.485.461-.986.64-1.5.18-.383.18-.827 0-1.21-.26.43-.5.82-.78 1.27m-22.14-3c-.44-.027-.88-.027-1.32 0 1.984.924 3.344 2.824 3.58 5 .689-.708 1.052-1.673 1-2.66-.17-1.148-.831-2.167-1.81-2.79 0 .16 0 .25-.08.37-.57-.26-.93-.82-1.66-.93l.33 1m10.27-1.84c-.537.248-.966.681-1.21 1.22.25-.06.47-.15.69-.18.051-.012.103-.017.155-.017.353 0 .653.267.695.617.017.498-.188.978-.56 1.31-.6.51-1.23 1-1.84 1.42-.652.395-1.037 1.118-1 1.88.105.692.461 1.323 1 1.77-1.248 1.525-2.667 2.9-4.23 4.1.41.12.83.24 1.24.33 1.413-1.173 2.749-2.436 4-3.78 1.104.57 2.437.485 3.46-.22.578-.475 1.011-1.102 1.25-1.81.2-.5.36-1 .53-1.52.202-.642.662-1.171 1.27-1.46.48-.19.77.05.82.68v.3c.277-.365.466-.789.55-1.24.179-.528.052-1.114-.33-1.52-.5-.384-1.215-.337-1.66.11-.317.254-.591.558-.81.9-.293.46-.557.937-.79 1.43-.544.737-1.149 1.426-1.81 2.06.451-.694.833-1.431 1.14-2.2.27-.65.5-1.31.71-2 .029-.105.052-.212.07-.32-.081.069-.157.142-.23.22-.915 1.055-1.89 2.057-2.92 3-.1.09-.18.2-.27.3.136-.644.417-1.249.82-1.77.15-.15.29-.3.42-.47.417-.491.755-1.044 1-1.64.288-.527.116-1.196-.39-1.52-.249-.175-.546-.27-.85-.27-.308.01-.61.081-.89.21m-5.88-3-.34-1.17c-.453.126-.822.455-1 .89-.186.414-.349.838-.49 1.27l-.61-.54c-.663.67-.736 1.736-.17 2.49.49.74 1.017 1.454 1.58 2.14.693.699 1.143 1.605 1.28 2.58-.008.993-.492 1.924-1.3 2.5-.639.527-1.452.798-2.28.76s-.11.27-.12.32c.08.38.76.21 1.1.12 2.57-.65 4.22-2.59 3.45-4.56-.3-.78-1.3-2-1.68-2.79-.387-.59-.554-1.299-.47-2 .182-.977 1.104-1.652 2.09-1.53.611.083 1.076.603 1.09 1.22-.042.463-.318.875-.73 1.09-.214.146-.496.146-.71 0-.168-.172-.193-.44-.06-.64.005-.043.005-.087 0-.13-.473.101-.818.517-.83 1 .1.73 1.76 1.32 2.52.82.73-.542 1.057-1.481.82-2.36-.141-.722-.68-1.305-1.39-1.5l-.22-.1c.16-.39.28-.74.42-1.11h-.15c-.86 0-1.34.54-1.83 1.28m12.22-7.85c-.277.459-.425.984-.43 1.52-.055.625-.055 1.255 0 1.88-.258-.273-.67-.339-1-.16.085.265.152.536.2.81.013.213.013.427 0 .64-.601.362-1 .983-1.08 1.68v.4c-.18-.55-.48-1.12-.63-1.6-.119-.395-.332-.755-.62-1.05-.077-.057-.161-.104-.25-.14-.05.14-.09.29-.15.42-.025.086-.045.172-.06.26-.138-.155-.288-.299-.45-.43-.124-.08-.264-.131-.41-.15-.31-.07-.36 0-.36.45v.49c-.361-.152-.782-.025-1 .3.14.13.27.21.3.42.01.261-.038.52-.14.76-.191.595-.075 1.247.31 1.74.332.208.769.153 1.04-.13.399-.544.511-1.249.3-1.89-.14-.22-.23-.22-.5 0 .07.15.21.3.19.47-.039.226-.139.437-.29.61-.19.2-.4.22-.55.06-.261-.39-.261-.9 0-1.29.087-.165.199-.317.33-.45.302-.275.743-.338 1.11-.16.338.264.534.671.53 1.1.07.91-.4 2.33-.36 3.24s.63 1.17 1.33 1.31c.31.06 1.1.15 1.27.21.83.3 1.55.25 2-.51s.7-2.27 1.19-3c.206-.381.574-.65 1-.73.404.009.765.263.91.64.058.178.088.363.09.55.035.465-.208.91-.62 1.13-.22.08-.4 0-.47-.3-.063-.222-.063-.458 0-.68.06-.16.25-.22.38-.32-.15-.29-.24-.33-.46-.2-.475.468-.685 1.145-.56 1.8.099.412.501.683.92.62.545-.271.921-.797 1-1.4.023-.286.112-.564.26-.81.12-.17.27-.18.46-.23l.05-.08c-.11-.59-.51-.49-.83-.65.08-.18.15-.31.22-.45.21-.4.19-.49-.11-.56-.141-.049-.291-.066-.44-.05-.205.043-.405.103-.6.18 0-.13.06-.19.07-.25s.05-.3.07-.45h-.11c-.063-.01-.127-.01-.19 0-.323.132-.629.303-.91.51-.482.36-.895.804-1.22 1.31.043-.187.099-.371.17-.55.25-.63.2-1 0-1.32l-.28-.45c0-.07.06-.14.09-.23.13-.42.33-.75.49-1.17-.158-.317-.516-.484-.86-.4.199-.621.304-1.268.31-1.92.014-.485-.103-.966-.34-1.39-.021-.036-.059-.059-.1-.06-.08.01-.153.054-.2.12" fill="url(#f)" fill-rule="nonzero" transform="matrix(4.16667 0 0 4.16667 -1946.727 -1593.420289)"/><path d="m536.42 536.93c.05.088.139.148.24.16h.07c.105-.014.207-.048.3-.1.33-.17.44-.35.39-.61-.191-.671-.636-1.242-1.24-1.59-.179.719-.094 1.479.24 2.14m-2.2-2c.089.507-.089 1.025-.47 1.37.455.136.95.022 1.3-.3.314-.232.488-.61.46-1-.068-.766-.515-1.45-1.19-1.82 0 .65-.12 1.24-.09 1.78m3 .14c.54.3 1.32 0 1.75-.93-.71.2-1-.25-1.34-.62-.36-.305-.745-.579-1.15-.82-.224.868.063 1.792.74 2.38m-4.74-.87c-.091.546-.516.979-1.06 1.08.274.362.739.528 1.18.42.433-.062.809-.336 1-.73.267-.535.358-1.14.26-1.73-.026-.295-.094-.584-.2-.86-.544.493-.942 1.126-1.15 1.83m4-3.14c.312.601.666 1.179 1.06 1.73.271.42.818.575 1.27.36.232-.106.432-.272.58-.48-.05-.26-.11-.51-.17-.78-.348.008-.686-.122-.94-.36-.422-.323-.939-.495-1.47-.49h-.34m-4.51-1.4c-.8.613-1.433 1.418-1.84 2.34-.406.771-.263 1.722.35 2.34.76-.69 1.32-1.38 1.1-2.26l1.67-.11c-.6-.922-.646-2.104-.12-3.07l-.11-.08c-.34.29-.71.55-1.06.84m-7.09 2.06h.44c-.25.64-.51 1.26-.8 1.86.505-.198.988-.45 1.44-.75.15.39.28.75.42 1.11.93-3 3.1-4.78 5.28-6.53-.17-.015-.34-.015-.51 0-2 0-4.87 1.66-6.26 4.34m10.09-4.09s-.07.08-.15.19c1.16.21 1.59 1.22 1.81 2.4.67-.16 1-.74 1.27-1.26.241.247.495.48.76.7-.233-.847-.497-1.717-.79-2.61h-.46c-.843.031-1.67.236-2.43.6m-.15-1.91c.745-.31 1.514-.557 2.3-.74l-.15-.39-.41-1c-.731.576-1.326 1.307-1.74 2.14m-18.25-.89.48.28c-.63.66-1.57.88-2.08 1.82h1.54c-.254.587-.475 1.188-.66 1.8 2.89-2.78 5.59-3 8.67-2.5-.1-.85-2-2.32-3.23-2.59-.364-.085-.736-.128-1.11-.13-1.302.061-2.556.51-3.6 1.29m12 .15c.279.663.931 1.096 1.65 1.096.251 0 .5-.053.73-.156.34-.12.66-.27.89-.36-.31-.82-.66-1.54-.93-2.32-.367-1.434-1.543-2.528-3-2.79-.33-.06-.67-.07-1.09-.13.69 1.61 1.21 3.17 1.77 4.66m4.19-2.73c.386.701.72 1.43 1 2.18 1.184-.675 1.766-2.075 1.41-3.39-.263-.719-.598-1.409-1-2.06-.28-.49-.63-.92-.94-1.4s-.56-.95-.86-1.44c-.78 1.995-.63 4.237.41 6.11m-14.46-2c1.07-.123 1.886-1.039 1.886-2.116 0-.226-.036-.45-.106-.664-.574-.992-1.426-1.795-2.45-2.31 1.4 1.6 2 3.33.67 5.08m-5.64-1.89-1.7-.27c-.11.657.089 1.33.54 1.82.421.481.868.939 1.34 1.37l-1.05.45c.471 1.244 1.786 1.972 3.09 1.71 1.242-.179 2.473-.423 3.69-.73 1.313-.461 2.74-.489 4.07-.08 1.197.633 2.036 1.786 2.27 3.12.29 1.123.151 2.314-.39 3.34s.24.28.34.34c.16-.47.64-1.19.74-1.67.106-.414.159-.839.159-1.266 0-2.712-2.16-4.976-4.869-5.104-1.191-.037-2.382-.01-3.57.08-.981.128-1.976-.084-2.82-.6-1.146-.799-1.465-2.379-.72-3.56.478-.717 1.409-.992 2.2-.65.587.314.967.915 1 1.58.042.359-.146.708-.47.87-.323.115-.685-.016-.86-.31-.044-.04-.091-.077-.14-.11-.158.657.164 1.342.77 1.64 1 .31 2-1 1.81-2.22-.073-1.098-.725-2.079-1.71-2.57-.945-.517-2.134-.304-2.84.51l-.26.23c-.42-.43-.78-.8-1.17-1.2-.65 1.17-.24 2.15.45 3.27m6.77-8.46c-.713.555-1.063 1.46-.91 2.35.092.857.49 1.652 1.12 2.24 0-.36 0-.72.07-1 .044-.515.48-.915.996-.915.076 0 .151.008.224.025.693.218 1.257.73 1.54 1.4.42 1.05.75 2.13 1.1 3.2.237 1.085 1.059 1.953 2.13 2.25.825.18 1.687.071 2.44-.31-.34-.21-.61-.38-.89-.54-.887-.59-1.558-1.454-1.91-2.46-.511-1.338-1.123-2.635-1.83-3.88-.485-.808-1.096-1.534-1.81-2.15-.349-.333-.808-.528-1.29-.55-.363.009-.714.135-1 .36m3.49-.86c1.048 1.76 1.993 3.58 2.83 5.45.469.898 1.014 1.755 1.63 2.56.269.262.625.419 1 .44.24.022.45.171.55.39 1.853 3.448 3.409 7.048 4.65 10.76.041.134.041.276 0 .41-.458.82-.319 1.851.34 2.52.44.55 1.24 1.67 1.56 1.65.082-.664.126-1.331.13-2 .019-.593-.048-1.186-.2-1.76-.1-.33-.47-.53-.72-.79s-.44-.33-.52-.56c-1.302-3.627-2.891-7.145-4.75-10.52-.199-.275-.244-.634-.12-.95.159-.653.035-1.343-.34-1.9-.912-1.515-2.072-2.867-3.43-4-.77-.68-1.57-1.29-2.39-1.91-.1-.08-.21-.13-.4-.25.09.21.13.32.19.42m1.28-4.72c-.77.4-1.11 1.48-.4 2.86.179.352.39.687.63 1 .922 1.119 1.924 2.168 3 3.14.63.61 1.23 1.27 1.83 1.94.916 1.074 1.385 2.46 1.31 3.87.9-1.156 1.173-2.684.73-4.08-.382-1.019-1.044-1.91-1.91-2.57-.6-.52-1.22-1-1.84-1.45-.791-.576-1.306-1.458-1.42-2.43 0-.75.43-1 1.32-.78l.38.11c-.352-.561-.845-1.02-1.43-1.33-.424-.286-.919-.448-1.43-.47-.289 0-.573.069-.83.2m-12.11-.75c-.117.043-.227.1-.33.17.178.254.379.492.6.71-.267.04-.531.101-.79.18-.174.077-.331.189-.46.33-.3.28-.25.39.23.71l.54.37c-.442.277-.614.844-.4 1.32.215-.088.455-.088.67 0 .286.177.531.412.72.69.373.559 1.056.83 1.71.68.512-.204.788-.772.63-1.3-.155-.714-.716-1.275-1.43-1.43-.33 0-.41.1-.39.51.22 0 .47 0 .64.12.218.204.376.463.46.75.09.35 0 .58-.33.63-.608.015-1.168-.337-1.42-.89-.118-.213-.202-.442-.25-.68-.086-.519.163-1.04.62-1.3.526-.176 1.105-.102 1.57.2 1 .58 2.27 2.1 3.29 2.7.82.489 1.895.234 2.41-.57s.06 0 .08-.08c-.003-.057-.003-.113 0-.17-1.44.43-2.93-.59-4.47-1.65-.83-.58-1.68-1.15-2.53-1.68-.311-.21-.675-.331-1.05-.35-.103-.012-.207-.012-.31 0m-1.56-1.32c0 .73 1.09.83 1.36.73s.54-.38.87-.5c.332-.048.668-.048 1 0-.741-.522-1.594-.864-2.49-1-.028-.004-.057-.006-.086-.006-.345 0-.63.285-.63.63 0 .029.002.058.006.086m3.53-4.58c-.147.153-.175.386-.07.57.301.511.746.922 1.28 1.18 1.058.506 1.975 1.265 2.67 2.21l.35.52c-.6-.59-1.3-1.14-1.93-1.69-.504-.503-1.179-.799-1.89-.83-.161.016-.282.159-.27.32.133.708.483 1.358 1 1.86.49.59 1 1.28 1.51 1.92l-.34-.28c-.829-.67-1.539-1.474-2.1-2.38-.29-.46-1.55-2-2.09-1.23-.2.28.11.84.69 1.28s1.05.73 1.57 1.1c0 .63.25 1 1 1.59.44.31.88.55 1.31.85.148.097.271.227.36.38.175.516.566.932 1.07 1.14.407.172.849.247 1.29.22.323-.022.62-.187.81-.45.391-.723.391-1.597 0-2.32-.185-.311-.422-.588-.7-.82-.196-.151-.354-.346-.46-.57-.257-.554-.565-1.083-.92-1.58-.52-.72-1-1-1.47-.9-.407-.526-.841-1.03-1.3-1.51-.316-.354-.742-.59-1.21-.67-.076-.005-.152.02-.21.07m5.64-.91c-.16.12-.44.35-.59 1.22-.208-.229-.432-.443-.67-.64-.078.097-.142.205-.19.32-.115.471-.036.969.22 1.38.47.89 1 1.77 1.51 2.64 1 1.61 1.88 3.15 1.36 4.57h.17s.06-.06.08-.07c.839-.46 1.165-1.518.73-2.37-.54-1.05-2-2.37-2.49-3.45-.275-.483-.312-1.067-.1-1.58.295-.434.828-.645 1.34-.53.233.068.455.169.66.3.539.287.855.872.8 1.48-.06.29-.31.41-.65.29-.281-.103-.529-.279-.72-.51-.13-.18-.06-.43-.08-.65-.42 0-.53 0-.54.35.107.726.634 1.323 1.34 1.52.519.192 1.105-.049 1.34-.55.195-.644-.034-1.344-.57-1.75-.227-.179-.417-.399-.56-.65-.062-.224-.037-.464.07-.67s0-.06 0-.11c-.72-.3-.91.2-1.31.43l-.34-.56c-.17-.3-.27-.43-.4-.43-.111.021-.213.077-.29.16m-4.54-.61c.292.94.783 1.807 1.44 2.54-.266-.442-.23-1.006.09-1.41.085-.361-.025-.741-.29-1-.182-.235-.415-.426-.68-.56-.063-.009-.127-.009-.19 0-.29 0-.4.25-.36.51m-6.41-2.48c-.07 0-.13 0-.14.12.036.522.216 1.024.52 1.45.384.586.856 1.109 1.4 1.55-.355.132-.572.495-.52.87.38.28.76.46 1.12.77.76.62 1.15.29 1.21 0 0-.1-.1-.28-.28-.49.14.144.33.229.53.24.33-.07.56-.23.31-.75-.13-.27-.38-.57-.51-.85-.119-.277-.222-.561-.31-.85-.41.024-.749.334-.81.74-.316-.598-.684-1.167-1.1-1.7-.321-.476-.763-.859-1.28-1.11h-.09z" fill="url(#g)" fill-rule="nonzero" transform="matrix(4.16667 0 0 4.16667 -1946.7250098 -1593.4215638)"/></svg>